<svg width="23" height="26" viewBox="0 0 23 26" fill="none" xmlns="http://www.w3.org/2000/svg">
<path d="M19.8532 3.14354C16.9094 0.199792 12.1157 0.199792 9.17503 3.14354L1.01878 11.2935C0.965654 11.3467 0.937529 11.4185 0.937529 11.4935C0.937529 11.5685 0.965654 11.6404 1.01878 11.6935L2.1719 12.8467C2.22461 12.8991 2.29596 12.9286 2.37034 12.9286C2.44472 12.9286 2.51607 12.8991 2.56878 12.8467L10.725 4.69667C11.7375 3.68417 13.0844 3.12792 14.5157 3.12792C15.9469 3.12792 17.2938 3.68417 18.3032 4.69667C19.3157 5.70917 19.8719 7.05604 19.8719 8.48417C19.8719 9.91542 19.3157 11.2592 18.3032 12.2717L9.99065 20.581L8.64378 21.9279C7.3844 23.1873 5.33753 23.1873 4.07815 21.9279C3.46878 21.3185 3.1344 20.5092 3.1344 19.6467C3.1344 18.7842 3.46878 17.9748 4.07815 17.3654L12.325 9.12167C12.5344 8.91542 12.8094 8.79979 13.1032 8.79979H13.1063C13.4 8.79979 13.6719 8.91542 13.8782 9.12167C14.0875 9.33104 14.2 9.60604 14.2 9.89979C14.2 10.1904 14.0844 10.4654 13.8782 10.6717L7.13753 17.406C7.0844 17.4592 7.05628 17.531 7.05628 17.606C7.05628 17.681 7.0844 17.7529 7.13753 17.806L8.29065 18.9592C8.34336 19.0116 8.41471 19.0411 8.48909 19.0411C8.56347 19.0411 8.63482 19.0116 8.68753 18.9592L15.425 12.2217C16.0469 11.5998 16.3875 10.7748 16.3875 9.89667C16.3875 9.01854 16.0438 8.19042 15.425 7.57167C14.1407 6.28729 12.0532 6.29042 10.7688 7.57167L9.96878 8.37479L2.52503 15.8154C2.01981 16.3177 1.61934 16.9152 1.34683 17.5734C1.07432 18.2316 0.935195 18.9374 0.937529 19.6498C0.937529 21.0967 1.50315 22.456 2.52503 23.4779C3.5844 24.5342 4.9719 25.0623 6.3594 25.0623C7.7469 25.0623 9.1344 24.5342 10.1907 23.4779L19.8532 13.8217C21.275 12.3967 22.0625 10.4998 22.0625 8.48417C22.0657 6.46542 21.2782 4.56854 19.8532 3.14354Z" fill="white"/>
</svg>
