<svg width="272" height="62" viewBox="0 0 272 62" fill="none" xmlns="http://www.w3.org/2000/svg">
  <path d="M88.1869 20.885V24.3068H88.3076C90.3642 21.5021 93.0639 20.1023 96.4057 20.1023C100.037 20.1023 102.552 21.2008 103.965 23.4092C105.375 25.6103 106.081 28.5994 106.081 32.3712V49.1449H101.246V33.2077C101.246 31.8494 101.194 30.7312 101.094 29.876C100.991 29.0104 100.759 28.1262 100.397 27.2286C100.037 26.3247 99.4198 25.6517 98.5549 25.2107C97.688 24.7738 96.5889 24.547 95.2599 24.547C93.9704 24.547 92.8713 24.7934 91.9648 25.2728C91.0573 25.7542 90.3642 26.3351 89.8792 27.0163C89.3973 27.6997 89.0247 28.5797 88.7635 29.6637C88.5002 30.7446 88.3389 31.7199 88.2764 32.5751C88.2181 33.4407 88.1869 34.4885 88.1869 35.7402V49.1449H83.3516V20.885H88.1869Z" fill="#0CD15B" />
  <path fill-rule="evenodd" clip-rule="evenodd" d="M114.101 24.344C116.922 21.5128 120.351 20.1023 124.389 20.1023C128.426 20.1023 131.853 21.5128 134.675 24.344C137.498 27.1741 138.91 30.6203 138.91 34.6806C138.91 38.7004 137.498 42.1204 134.675 44.9304C131.853 47.7424 128.426 49.1449 124.389 49.1449C120.351 49.1449 116.922 47.7424 114.101 44.9304C111.278 42.1204 109.867 38.7004 109.867 34.6806C109.867 30.6203 111.278 27.1741 114.101 24.344ZM131.441 27.3892C129.602 25.4201 127.248 24.431 124.389 24.431C121.527 24.431 119.174 25.4201 117.334 27.3892C115.49 29.3664 114.569 31.7771 114.569 34.6224C114.569 37.4737 115.49 39.8824 117.334 41.8555C119.174 43.8307 121.527 44.8107 124.389 44.8107C127.248 44.8107 129.602 43.8307 131.441 41.8555C133.285 39.8824 134.206 37.4737 134.206 34.6224C134.206 31.7771 133.285 29.3664 131.441 27.3892Z" fill="#0CD15B" />
  <path d="M144.484 20.4812L152.867 39.3591L161.252 20.4812H166.639L152.867 50.4077L139.035 20.4812H144.484Z" fill="#0CD15B" />
  <path fill-rule="evenodd" clip-rule="evenodd" d="M170.273 24.3441C172.66 21.5118 175.932 20.1023 180.08 20.1023C184.349 20.1023 187.656 21.6127 190.003 24.6375C192.354 27.6644 193.412 31.3225 193.176 35.6137H171.51C171.546 38.1939 172.406 40.3718 174.09 42.1484C175.774 43.923 177.927 44.8103 180.552 44.8103C184.032 44.8103 186.833 42.9198 188.949 39.1347L192.939 41.4174C190.16 46.5698 185.912 49.1449 180.197 49.1449C176.166 49.1449 172.904 47.7888 170.42 45.0765C167.933 42.3612 166.691 38.9955 166.691 34.9745C166.691 30.7225 167.887 27.1734 170.273 24.3441ZM185.484 26.5141C183.955 25.1237 182.176 24.431 180.14 24.431C178.104 24.431 176.263 25.1378 174.619 26.5413C172.976 27.9499 172.016 29.6448 171.743 31.6362H188.24C187.929 29.6055 187.009 27.8964 185.484 26.5141Z" fill="#0CD15B" />
  <path d="M201.694 20.885V23.9507H201.811C202.789 22.6285 203.701 21.6532 204.543 21.0289C205.382 20.4139 206.509 20.1023 207.92 20.1023C209.211 20.1023 210.622 20.5433 212.149 21.4192L209.915 25.8153C208.703 24.9715 207.763 24.547 207.098 24.547C203.495 24.547 201.694 28.0372 201.694 35.0124V49.1449H196.996V20.885H201.694Z" fill="#0CD15B" />
  <path fill-rule="evenodd" clip-rule="evenodd" d="M236.453 24.5697V10H241.19V48.3776H236.453V44.535H236.334C233.969 47.6087 230.764 49.1445 226.741 49.1445C222.787 49.1445 219.581 47.7104 217.116 44.831C214.646 41.9547 213.41 38.5363 213.41 34.5534C213.41 30.4576 214.638 26.9812 217.086 24.1263C219.534 21.2693 222.77 19.8474 226.798 19.8474C230.745 19.8474 233.926 21.4168 236.334 24.5697H236.453ZM234.144 27.0822C232.443 25.1711 230.173 24.214 227.333 24.214C224.687 24.214 222.513 25.2057 220.815 27.1697C219.117 29.1388 218.271 31.4821 218.271 34.2038C218.271 37.0751 219.087 39.5598 220.728 41.6458C222.367 43.7288 224.586 44.7723 227.392 44.7723C230.313 44.7723 232.593 43.7634 234.232 41.7333C235.873 39.7062 236.691 37.2154 236.691 34.2577C236.691 31.3875 235.842 28.9913 234.144 27.0822Z" fill="#0CD15B" />
  <path fill-rule="evenodd" clip-rule="evenodd" d="M248.563 24.3441C250.95 21.5118 254.222 20.1023 258.371 20.1023C262.637 20.1023 265.945 21.6127 268.293 24.6375C270.644 27.6644 271.701 31.3225 271.465 35.6137H249.798C249.837 38.1939 250.694 40.3718 252.381 42.1484C254.064 43.923 256.215 44.8103 258.842 44.8103C262.322 44.8103 265.123 42.9198 267.238 39.1347L271.227 41.4174C268.45 46.5698 264.2 49.1449 258.485 49.1449C254.454 49.1449 251.194 47.7888 248.712 45.0765C246.223 42.3612 244.98 38.9955 244.98 34.9745C244.98 30.7225 246.176 27.1734 248.563 24.3441ZM263.773 26.5141C262.248 25.1237 260.465 24.431 258.429 24.431C256.393 24.431 254.553 25.1378 252.908 26.5413C251.264 27.9499 250.306 29.6448 250.033 31.6362H266.53C266.22 29.6055 265.3 27.8964 263.773 26.5141Z" fill="#0CD15B" />
  <path fill-rule="evenodd" clip-rule="evenodd" d="M5.80542 1.35121C7.39431 0.467647 9.18901 0 10.9807 0C15.0472 0 18.7607 2.30409 20.6815 6.01733L30.8201 25.6782L40.8266 6.28012C42.7454 2.56688 46.4589 0.253481 50.5224 0.253481C52.3171 0.253481 54.1118 0.719059 55.7017 1.614C58.2923 3.05212 60.1819 5.44519 61.0273 8.35143C61.8817 11.2784 61.5882 14.3605 60.201 17.0453L40.4039 55.4399C38.4872 59.1521 34.7767 61.4583 30.7061 61.4583C28.9104 61.4583 27.1198 60.9917 25.5299 60.1061C22.9212 58.6599 21.127 56.2742 20.284 53.5667L20.284 53.5714L1.31012 16.7815C-0.0810465 14.0967 -0.374613 11.0156 0.478849 8.09898C1.32424 5.18239 3.21174 2.7914 5.80542 1.35121ZM10.981 3.88888C13.6675 3.88888 16.1129 5.40666 17.3759 7.85664L28.6969 29.8009L21.0258 44.6755C20.8691 44.9762 20.76 45.2886 20.6515 45.5993L20.6515 45.5994C20.6196 45.6907 20.5877 45.7819 20.5547 45.8726L4.60527 14.9531C3.69733 13.1849 3.4986 11.1519 4.06152 9.22647C4.62948 7.31036 5.86933 5.71601 7.58129 4.78279C8.6224 4.18995 9.80171 3.88888 10.981 3.88888ZM50.5229 4.14175C51.7062 4.14175 52.8856 4.45317 53.9317 5.03566C55.6417 5.98854 56.8785 7.56323 57.4454 9.49072C58.0104 11.4048 57.8066 13.4378 56.9017 15.2153L37.0975 53.6026C35.8345 56.0423 33.384 57.5693 30.7066 57.5693C29.5273 57.5693 28.347 57.2569 27.2988 56.6744C23.775 54.721 22.4444 50.1605 24.3309 46.5052L44.128 8.11881C45.3991 5.65953 47.8425 4.14175 50.5229 4.14175Z" fill="#0CD15B" />
</svg>
